<svg width="748" height="676" viewBox="0 0 748 676" fill="none" xmlns="http://www.w3.org/2000/svg">
    <path d="M191.234 350.049L207 317C409.5 292.5 571 295 547.5 336C531.332 364.208 476.603 317.748 204.44 367.112C194.752 368.869 186.994 358.935 191.234 350.049Z"
          fill="#FF0459"/>
    <path d="M191.234 350.049L207 317C409.5 292.5 571 295 547.5 336C531.332 364.208 476.603 317.748 204.44 367.112C194.752 368.869 186.994 358.935 191.234 350.049Z"
          fill="url(#paint0_linear_1_14)"/>
    <path d="M191.234 350.049L207 317C409.5 292.5 571 295 547.5 336C531.332 364.208 476.603 317.748 204.44 367.112C194.752 368.869 186.994 358.935 191.234 350.049Z"
          fill="url(#paint1_radial_1_14)" fill-opacity="0.72"/>
    <path d="M191.234 350.049L207 317C409.5 292.5 571 295 547.5 336C531.332 364.208 476.603 317.748 204.44 367.112C194.752 368.869 186.994 358.935 191.234 350.049Z"
          fill="url(#paint2_linear_1_14)" fill-opacity="0.2"/>
    <path d="M532 5.5C635.5 -18.5 799.417 40.1003 731 116C667 187 643 31 514.5 99C458 133.5 397.64 360.629 380 425.5C364.5 482.5 330.5 613 228.5 662C86.9999 715.5 18.0517 592.463 7.99995 558.5C-25.0001 447 47.4999 314.5 253 314.5L228.5 362C-95.5001 419.5 153.5 767.5 271.5 492.5C394.5 121 410.641 33.6413 532 5.5Z"
          fill="#FF0459"/>
    <path d="M532 5.5C635.5 -18.5 799.417 40.1003 731 116C667 187 643 31 514.5 99C458 133.5 397.64 360.629 380 425.5C364.5 482.5 330.5 613 228.5 662C86.9999 715.5 18.0517 592.463 7.99995 558.5C-25.0001 447 47.4999 314.5 253 314.5L228.5 362C-95.5001 419.5 153.5 767.5 271.5 492.5C394.5 121 410.641 33.6413 532 5.5Z"
          fill="url(#paint3_linear_1_14)"/>
    <path d="M532 5.5C635.5 -18.5 799.417 40.1003 731 116C667 187 643 31 514.5 99C458 133.5 397.64 360.629 380 425.5C364.5 482.5 330.5 613 228.5 662C86.9999 715.5 18.0517 592.463 7.99995 558.5C-25.0001 447 47.4999 314.5 253 314.5L228.5 362C-95.5001 419.5 153.5 767.5 271.5 492.5C394.5 121 410.641 33.6413 532 5.5Z"
          fill="url(#paint4_linear_1_14)" fill-opacity="0.16"/>
    <defs>
        <linearGradient id="paint0_linear_1_14" x1="451.5" y1="431.5" x2="270.5" y2="236.5"
                        gradientUnits="userSpaceOnUse">
            <stop stop-color="#9908F1"/>
            <stop offset="1" stop-color="#FF0459" stop-opacity="0"/>
        </linearGradient>
        <radialGradient id="paint1_radial_1_14" cx="0" cy="0" r="1" gradientUnits="userSpaceOnUse"
                        gradientTransform="translate(374.5 325.5) rotate(2.41466) scale(83.0738 179.481)">
            <stop/>
            <stop offset="1" stop-opacity="0"/>
        </radialGradient>
        <linearGradient id="paint2_linear_1_14" x1="251.5" y1="258" x2="218" y2="202" gradientUnits="userSpaceOnUse">
            <stop stop-color="#FF0459"/>
            <stop offset="1" stop-color="#FF0459" stop-opacity="0"/>
        </linearGradient>
        <linearGradient id="paint3_linear_1_14" x1="428" y1="443.5" x2="242.5" y2="271.5"
                        gradientUnits="userSpaceOnUse">
            <stop stop-color="#9908F1"/>
            <stop offset="1" stop-color="#FF0459" stop-opacity="0.37"/>
        </linearGradient>
        <linearGradient id="paint4_linear_1_14" x1="237.5" y1="438" x2="43.5" y2="235.5" gradientUnits="userSpaceOnUse">
            <stop stop-color="#FF0459"/>
            <stop offset="1" stop-color="#FF000F" stop-opacity="0"/>
        </linearGradient>
    </defs>
</svg>
