<svg width="25" height="25" viewBox="0 0 25 25" fill="none" xmlns="http://www.w3.org/2000/svg">
    <path d="M7.26002 22.5H17.74C20.5 22.5 21.6 20.81 21.73 18.75L22.25 10.49C22.39 8.33 20.67 6.5 18.5 6.5C17.89 6.5 17.33 6.15 17.05 5.61L16.33 4.16C15.87 3.25 14.67 2.5 13.65 2.5H11.36C10.33 2.5 9.13001 3.25 8.67001 4.16L7.95001 5.61C7.67001 6.15 7.11002 6.5 6.50002 6.5C4.33001 6.5 2.61001 8.33 2.75001 10.49L3.27001 18.75C3.39001 20.81 4.50002 22.5 7.26002 22.5Z"
          stroke-width="1.5" stroke-linecap="round" stroke-linejoin="round"/>
    <path d="M11 8.5H14" stroke-width="1.5" stroke-linecap="round" stroke-linejoin="round"/>
    <path d="M12.5 18.5C14.29 18.5 15.75 17.04 15.75 15.25C15.75 13.46 14.29 12 12.5 12C10.71 12 9.25 13.46 9.25 15.25C9.25 17.04 10.71 18.5 12.5 18.5Z"
          stroke-width="1.5" stroke-linecap="round" stroke-linejoin="round"/>
</svg>
