<svg width="25" height="25" viewBox="0 0 25 25" fill="none" xmlns="http://www.w3.org/2000/svg">
    <path d="M12.0041 12.6733C14.766 12.6733 17.005 10.4679 17.005 7.74752C17.005 5.02711 14.766 2.82178 12.0041 2.82178C9.24217 2.82178 7.00317 5.02711 7.00317 7.74752C7.00317 10.4679 9.24217 12.6733 12.0041 12.6733Z"
          stroke-width="1.5" stroke-linecap="round" stroke-linejoin="round"/>
    <path d="M19.2154 16.3577L15.6748 19.8452C15.5347 19.9831 15.4047 20.2392 15.3747 20.4264L15.1847 21.7563C15.1147 22.239 15.4547 22.574 15.9448 22.505L17.295 22.3179C17.4851 22.2883 17.7552 22.1603 17.8852 22.0223L21.4258 18.5349C22.0359 17.934 22.326 17.2345 21.4258 16.3479C20.5357 15.4711 19.8256 15.7568 19.2154 16.3577Z"
          stroke-width="1.5" stroke-miterlimit="10" stroke-linecap="round" stroke-linejoin="round"/>
    <path d="M18.7053 16.8601C19.0054 17.9241 19.8455 18.7516 20.9257 19.0471" stroke-width="1.5"
          stroke-miterlimit="10" stroke-linecap="round" stroke-linejoin="round"/>
    <path d="M3.4126 22.5249C3.4126 18.7124 7.26334 15.6289 12.0042 15.6289C13.0444 15.6289 14.0446 15.7767 14.9747 16.0525"
          stroke-width="1.5" stroke-linecap="round" stroke-linejoin="round"/>
</svg>
